<svg width="84" height="84" viewBox="0 0 84 84" fill="none" xmlns="http://www.w3.org/2000/svg">
<circle cx="42" cy="42" r="42" fill="#FF9271"/>
<mask id="mask0_9_3526" style="mask-type:alpha" maskUnits="userSpaceOnUse" x="0" y="0" width="84" height="84">
<circle cx="42" cy="42" r="42" fill="url(#paint0_linear_9_3526)"/>
</mask>
<g mask="url(#mask0_9_3526)">
<circle cx="54.2172" cy="67.9632" r="34.3636" fill="#FF5B29"/>
</g>
<path d="M52.7885 52.7861C52.001 52.7861 51.3567 53.4305 51.3567 54.2179V55.6498H28.4476V27.0134C28.4476 25.4312 29.7291 24.1498 31.3113 24.1498H48.4931C50.0752 24.1498 51.3567 25.4312 51.3567 27.0134C51.3567 27.8009 52.001 28.4452 52.7885 28.4452C53.576 28.4452 54.2203 27.8009 54.2203 27.0134C54.2203 23.8562 51.6502 21.2861 48.4931 21.2861H31.3113C28.1541 21.2861 25.584 23.8562 25.584 27.0134V58.5134C25.584 61.6706 28.1541 64.2407 31.3113 64.2407H48.4931C51.6502 64.2407 54.2203 61.6706 54.2203 58.5134V54.2179C54.2203 53.4305 53.576 52.7861 52.7885 52.7861Z" fill="#F6EFE9"/>
<path d="M38.4688 48.4903C38.4688 49.2778 39.1131 49.9221 39.9006 49.9221H55.6506C58.0202 49.9221 59.946 47.9963 59.946 45.6267V39.8994H38.4688V48.4903Z" fill="#F6EFE9"/>
<path d="M55.6506 31.3096H39.9006C39.1131 31.3096 38.4688 31.9539 38.4688 32.7414V37.0368H59.946V35.605C59.946 33.2354 58.0202 31.3096 55.6506 31.3096Z" fill="#F6EFE9"/>
<defs>
<linearGradient id="paint0_linear_9_3526" x1="11.4545" y1="2.29091" x2="69.4909" y2="74.8364" gradientUnits="userSpaceOnUse">
<stop stop-color="#FF5B29"/>
<stop offset="1" stop-color="#E43500" stop-opacity="0.4"/>
</linearGradient>
</defs>
</svg>
