<svg width="148" height="48" viewBox="0 0 148 48" fill="none" xmlns="http://www.w3.org/2000/svg">
<g clip-path="url(#clip0_2015_15)">
<path d="M132.79 19.3975H103.602C96.2155 19.3975 90.2278 25.3954 90.2278 32.7942C90.2278 40.193 96.2155 46.1909 103.602 46.1909H132.79C140.177 46.1909 146.164 40.193 146.164 32.7942C146.164 25.3954 140.177 19.3975 132.79 19.3975Z" fill="#FF5B29"/>
<path d="M10.8266 15.7153C11.7406 15.7262 12.524 15.8787 13.1986 16.1945C13.8733 16.5103 14.3901 16.935 14.7547 17.4795C15.13 18.0294 15.3204 18.6393 15.3204 19.3415C15.3313 20.2563 15.0321 21.0022 14.4282 21.5903C13.8243 22.1784 13.2313 22.3635 11.7515 22.7501L7.84521 23.8989C7.39906 24.0187 6.95837 24.1766 6.44697 24.2963V20.0331C6.45785 19.1129 6.6374 18.3234 7.00191 17.6809C7.36641 17.0384 7.88326 16.5484 8.53612 16.2217C9.19442 15.8896 9.95605 15.7153 10.8266 15.7153ZM6.51227 31.1133C6.69183 30.2367 7.34469 29.4962 8.1825 29.1531C12.1922 27.8464 18.378 26.5723 19.9122 24.9388C21.1526 23.5668 21.7728 21.7972 21.7728 19.6356C21.7728 18.2799 21.5226 17.0439 21.0329 15.9168C20.5324 14.7952 19.7871 13.7825 18.7752 12.8895C17.7687 11.9966 16.6152 11.3215 15.3096 10.8641C14.0147 10.4121 12.5566 10.1835 10.9409 10.1835C9.35764 10.1835 7.90503 10.4121 6.58298 10.875C5.2664 11.3378 4.08582 12.0293 3.05212 12.9495C2.04563 13.8696 1.28396 14.9749 0.76711 16.2707C0.255705 17.5666 0 19.0585 0 20.73V30.9335C0.010881 32.9699 0.462445 34.745 1.35469 36.2858C2.24692 37.8213 3.50368 39.0137 5.13583 39.8794C6.76798 40.7451 8.70478 41.1752 10.9463 41.197C12.5295 41.197 13.9603 40.9737 15.2388 40.5437C16.5174 40.1026 17.6598 39.4384 18.6663 38.5454C19.6728 37.6525 20.0863 36.6942 20.5869 35.627C21.3104 33.6559 22.034 30.2312 20.7446 28.8864C19.8959 28.0043 18.1604 28.037 17.0178 28.4072C13.7372 29.4635 15.7611 35.6106 10.7777 35.6651C9.90171 35.6651 9.15638 35.4908 8.50352 35.1533C7.86153 34.8157 7.36096 34.3366 7.00735 33.6941C6.64284 33.0516 6.45785 32.3983 6.45241 31.4781L6.51227 31.1133Z" fill="#FF5B29"/>
<path d="M56.9866 13.921C56.9866 13.257 56.8261 12.4437 56.2013 12.4215C55.8919 12.4105 55.5546 12.3994 55.1564 12.3883C55.0901 12.3883 55.0179 12.3828 54.9243 12.3828C54.6811 12.3828 54.4211 12.3828 54.1335 12.3883C52.9837 12.3994 50.4903 12.4215 44.3535 12.4215H37.874V8.9302C37.874 8.23862 38.0122 7.60782 38.2775 7.05456C38.5429 6.50125 38.9244 6.04752 39.422 5.72664C39.9195 5.39465 40.5111 5.22866 41.1966 5.21759C41.7495 5.21759 42.2748 5.30059 42.7778 5.45551C43.2754 5.61046 43.7453 5.8539 44.1932 6.15818C44.3866 6.2965 44.5912 6.3906 44.8124 6.45143C45.0224 6.51786 45.2491 6.54554 45.4703 6.54554C45.9789 6.52893 46.4212 6.36846 46.8303 6.04752C47.2284 5.73219 47.5435 5.33379 47.7702 4.86348C48.0079 4.38211 48.1185 3.91181 48.1295 3.44151C48.1295 3.22019 48.0908 3.00994 48.0079 2.82182C47.936 2.63923 47.8254 2.47325 47.6872 2.32939C46.9409 1.55477 46.0231 0.973805 44.9284 0.580962C43.8393 0.193656 42.5622 0 41.0971 0C39.0958 0.011066 37.393 0.398373 35.9998 1.15639C34.5954 1.92548 33.5229 3.0044 32.7932 4.39872C32.0524 5.80409 31.6875 7.45847 31.6764 9.36732V12.416H27.9667C27.3862 12.416 26.9439 12.6373 26.6454 13.08C26.3413 13.5226 26.192 14.1865 26.192 15.0774C26.192 15.9626 26.3413 16.6321 26.6454 17.0748C26.9384 17.5174 27.3862 17.7387 27.9667 17.7387H31.6764V39.356C31.6764 40.02 31.9362 40.5179 32.4614 40.8555C32.9812 41.1875 33.7552 41.3535 34.7779 41.3535C35.8007 41.3535 36.5802 41.1875 37.0944 40.8555C37.6196 40.5235 37.8795 40.0255 37.8795 39.356V17.7387H44.3038C44.6354 17.7387 47.9305 17.8106 50.7888 17.7996V39.3007C50.7888 39.9647 51.0486 40.4627 51.5739 40.8001C52.0935 41.1321 52.8675 41.2982 53.8903 41.2982C54.9133 41.2982 55.6926 41.1321 56.2068 40.8001C56.7319 40.4681 56.992 39.9703 56.992 39.3007V13.921H56.9866ZM85.4089 21.7944C85.4089 20.212 85.1492 18.8011 84.6241 17.5616C84.1044 16.3168 83.3301 15.2544 82.3072 14.3635C80.2564 12.5875 77.7631 11.7022 74.8273 11.7022C73.3564 11.7022 71.9912 11.9235 70.7252 12.3662C69.459 12.8089 68.3145 13.4728 67.2916 14.3635C66.2687 15.2489 65.5003 16.3112 65.0031 17.5616C64.4943 18.8011 64.2452 20.212 64.2452 21.7944V39.3118C64.2452 39.9757 64.5053 40.4737 65.0305 40.8112C65.5502 41.1432 66.324 41.3092 67.3469 41.3092C68.3698 41.3092 69.1491 41.1432 69.6633 40.8112C70.1885 40.4792 70.4486 39.9813 70.4486 39.3118V21.8497C70.4595 20.8317 70.6528 19.963 71.029 19.2437C71.4047 18.5244 71.9244 17.9766 72.5826 17.6004C73.2403 17.2241 73.9867 17.025 74.8273 17.025C75.6673 17.025 76.4138 17.2187 77.0719 17.6004C77.7297 17.9766 78.2439 18.5244 78.6255 19.2437C79.0012 19.963 79.2005 20.8317 79.2061 21.8497V39.3118C79.2061 39.9757 79.4656 40.4737 79.9907 40.8112C80.5104 41.1432 81.2847 41.3092 82.3072 41.3092C83.3301 41.3092 84.1099 41.1432 84.6241 40.8112C85.1492 40.4792 85.4089 39.9813 85.4089 39.3118V21.7944Z" fill="#231A17"/>
<path fill-rule="evenodd" clip-rule="evenodd" d="M53.9236 1.94464C55.2946 1.94464 56.4117 3.05677 56.4117 4.43448C56.4117 5.80669 55.3 6.92431 53.9236 6.92431C52.5525 6.92431 51.4358 5.81216 51.4358 4.43448C51.4358 3.0623 52.5525 1.94464 53.9236 1.94464Z" fill="#FF5B29"/>
<path d="M106.034 26.4559V30.4814C106.501 30.073 107.123 29.8785 107.901 29.8785C108.815 29.8785 109.612 30.1897 110.273 30.7925C110.954 31.3954 111.285 32.2705 111.285 33.4178V36.8016C111.285 37.9101 110.915 38.7852 110.195 39.4075C109.476 40.0298 108.601 40.3409 107.57 40.3409C106.539 40.3409 105.664 40.0298 104.945 39.4075C104.225 38.7852 103.856 37.9101 103.856 36.8016V26.4559C103.856 25.9892 104.225 25.7558 104.945 25.7558C105.664 25.7558 106.034 25.9892 106.034 26.4559ZM106.034 33.4373V36.7821C106.034 37.8712 106.656 38.474 107.57 38.474C108.484 38.474 109.106 37.8712 109.106 36.7821V33.4373C109.106 32.3483 108.484 31.7454 107.57 31.7454C106.656 31.7454 106.034 32.3483 106.034 33.4373Z" fill="white"/>
<path d="M119.551 30.5786V29.9369C119.551 28.7701 118.851 28.1672 117.82 28.1672C116.79 28.1672 116.09 28.7701 116.09 29.9369V30.1897C116.09 30.6758 115.701 30.9092 114.923 30.9092C114.145 30.9092 113.756 30.6758 113.756 30.1897V29.8591C113.756 28.8673 114.126 28.0116 114.845 27.2921C115.565 26.5531 116.556 26.1836 117.782 26.1836C119.065 26.1836 120.076 26.5531 120.796 27.2726C121.515 27.9922 121.885 28.8867 121.885 29.9952V30.6564C121.885 32.7566 120.971 34.079 118.929 34.9541C117.879 35.4014 117.179 35.8098 116.809 36.1793C116.44 36.5488 116.265 36.9961 116.265 37.56V38.124H121.243C121.651 38.124 121.865 38.4546 121.865 39.1158C121.865 39.7769 121.651 40.1075 121.243 40.1075H114.651C114.164 40.1075 113.931 39.8547 113.931 39.3297V38.124C113.931 36.8599 114.145 35.907 114.592 35.2264C115.04 34.5458 115.876 33.9429 117.081 33.4178C118.054 33.0095 118.715 32.6011 119.046 32.2121C119.376 31.8038 119.551 31.2592 119.551 30.5786Z" fill="white"/>
<path d="M126.411 26.4559V30.4814C126.878 30.073 127.5 29.8785 128.278 29.8785C129.192 29.8785 129.989 30.1897 130.651 30.7925C131.331 31.3954 131.662 32.2705 131.662 33.4178V36.8016C131.662 37.9101 131.292 38.7852 130.573 39.4075C129.853 40.0298 128.978 40.3409 127.948 40.3409C126.917 40.3409 126.042 40.0298 125.322 39.4075C124.603 38.7852 124.233 37.9101 124.233 36.8016V26.4559C124.233 25.9892 124.603 25.7558 125.322 25.7558C126.042 25.7558 126.411 25.9892 126.411 26.4559ZM126.411 33.4373V36.7821C126.411 37.8712 127.034 38.474 127.948 38.474C128.862 38.474 129.484 37.8712 129.484 36.7821V33.4373C129.484 32.3483 128.862 31.7454 127.948 31.7454C127.034 31.7454 126.411 32.3483 126.411 33.4373Z" fill="white"/>
</g>
<defs>
<clipPath id="clip0_2015_15">
<rect width="148" height="48" fill="white"/>
</clipPath>
</defs>
</svg>
