<svg width="84" height="84" viewBox="0 0 84 84" fill="none" xmlns="http://www.w3.org/2000/svg">
<circle cx="42" cy="42" r="42" fill="#FF9271"/>
<mask id="mask0_9_3539" style="mask-type:alpha" maskUnits="userSpaceOnUse" x="0" y="0" width="84" height="84">
<circle cx="42" cy="42" r="42" fill="url(#paint0_linear_9_3539)"/>
</mask>
<g mask="url(#mask0_9_3539)">
<circle cx="54.2172" cy="67.9632" r="34.3636" fill="#FF5B29"/>
</g>
<path d="M60.7962 47.6368C59.0708 45.9114 56.2573 45.9114 54.5248 47.6368L45.3325 56.8291C45.0605 57.1011 44.9102 57.4591 44.9102 57.8385V62.0838C44.9102 62.8713 45.5545 63.5156 46.342 63.5156H50.5873C50.9667 63.5156 51.3319 63.3653 51.5967 63.0933L60.7962 53.901C62.5215 52.1685 62.5215 49.3621 60.7962 47.6296V47.6368Z" fill="#F6EFE9"/>
<path d="M37.6529 35.7262C37.5026 35.6474 37.3021 35.6045 37.0516 35.6045C36.0278 35.6045 34.2953 36.3132 33.1713 38.0243C32.3838 39.2198 32.5986 40.9452 33.6009 42.0978C35.1186 40.9237 36.7294 39.3272 37.5527 37.3799C37.61 37.2368 38.1326 35.9768 37.6529 35.7262Z" fill="#F6EFE9"/>
<path d="M43.3053 54.8121L52.4975 45.6198C53.5643 44.5459 54.903 43.8515 56.3635 43.5938V29.161C56.3635 25.2164 53.149 22.002 49.2044 22.002H30.5907C26.6461 22.002 23.4316 25.2164 23.4316 29.161V56.3656C23.4316 60.3102 26.6461 63.5247 30.5907 63.5247H42.2958C42.1312 63.0737 42.0453 62.594 42.0453 62.0929V57.8475C42.0453 56.7021 42.4891 55.621 43.3053 54.8121ZM41.2291 44.5889C38.208 46.4288 35.5591 46.4431 33.6119 45.584C32.2874 46.4288 31.2852 46.887 31.1778 46.9299C30.9845 47.0158 30.7912 47.0588 30.5907 47.0588C30.0466 47.0588 29.524 46.7438 29.2878 46.214C28.9585 45.4981 29.2806 44.6462 30.0037 44.324C30.0323 44.3097 30.4977 44.0949 31.1993 43.6868C29.567 41.5964 29.3379 38.6325 30.7697 36.449C32.7528 33.435 36.5972 31.9173 38.9955 33.1988C40.3486 33.9147 41.3652 35.6901 40.1839 38.4965C39.3821 40.3937 38.0433 41.9973 36.6473 43.2716C38.2438 43.1427 40.1123 42.162 42.0238 40.3793C42.5035 39.9426 43.2194 39.871 43.7706 40.229C44.3219 40.5798 44.5653 41.2599 44.3577 41.8756C44.0928 42.6989 43.9639 43.7441 44.057 44.1808C44.4221 44.145 45.589 43.8372 48.3238 41.7038C48.9466 41.217 49.8487 41.3243 50.3355 41.9472C50.8223 42.57 50.7078 43.4721 50.0849 43.9589C46.3407 46.8798 43.9639 47.6816 42.3746 46.5648C41.6873 46.0851 41.358 45.3621 41.2291 44.5889Z" fill="#F6EFE9"/>
<defs>
<linearGradient id="paint0_linear_9_3539" x1="11.4545" y1="2.29091" x2="69.4909" y2="74.8364" gradientUnits="userSpaceOnUse">
<stop stop-color="#FF5B29"/>
<stop offset="1" stop-color="#E43500" stop-opacity="0.4"/>
</linearGradient>
</defs>
</svg>
