<svg width="60" height="60" viewBox="0 0 60 60" fill="none" xmlns="http://www.w3.org/2000/svg">
<rect width="60" height="60" rx="30" fill="#005BFF"/>
<rect x="12" y="12" width="36" height="36" fill="#005BFF"/>
<path fill-rule="evenodd" clip-rule="evenodd" d="M19.7412 33.1329C20.5197 35.8981 25.7965 37.7518 31.6868 36.0935C37.5929 34.4307 41.0997 30.1042 40.3212 27.339C39.5427 24.5738 34.279 22.7207 28.3888 24.379C22.4985 26.0372 18.9627 30.3677 19.7412 33.1329ZM14.5951 34.5817C12.8876 28.5164 18.4177 21.6578 26.9467 19.2566C35.4755 16.8554 43.7898 19.825 45.4951 25.8824C47.2005 31.9397 41.6566 38.8107 33.1277 41.2118C24.5987 43.613 16.3027 40.6469 14.5951 34.5817Z" fill="white"/>
</svg>
