<svg width="60" height="60" viewBox="0 0 60 60" fill="none" xmlns="http://www.w3.org/2000/svg">
<rect width="60" height="60" rx="30" fill="white"/>
<path d="M29.892 23.988C30.1962 23.961 30.5027 23.9978 30.792 24.096V15.996H31.8C31.8 15.996 31.692 18.228 32.088 24.348C34.3912 24.8548 36.4917 26.0351 38.1225 27.739C39.7531 29.4428 40.8401 31.5931 41.2454 33.9164C41.6505 36.2398 41.3556 38.6311 40.3981 40.7863C39.4406 42.9416 37.8637 44.7634 35.868 46.02C35.796 45.948 35.688 45.768 35.58 45.66C31.98 41.16 31.08 34.356 30.9 28.416C31.404 28.524 31.908 28.596 32.412 28.668C33.1546 33.6921 35.4012 38.3734 38.856 42.096C40.0967 40.5548 40.7304 38.6128 40.6376 36.6364C40.5447 34.6601 39.7317 32.786 38.352 31.368C36.7995 29.6995 34.8001 28.5124 32.592 27.948C31.5429 27.6959 30.4667 27.575 29.388 27.588C28.3097 27.5851 27.2347 27.7059 26.184 27.948C21.576 29.1 18.12 32.7 18.12 37.02C18.1658 38.8492 18.7966 40.6156 19.92 42.06C23.3754 38.3423 25.6114 33.6568 26.328 28.632C26.8602 28.5776 27.3891 28.4935 27.912 28.38C27.66 34.32 26.796 41.052 23.232 45.552C23.1205 45.726 23.0004 45.8942 22.872 46.056C20.8917 44.7698 19.3368 42.9259 18.4034 40.7569C17.47 38.588 17.2001 36.1911 17.6276 33.8688C18.055 31.5466 19.1608 29.4029 20.8054 27.7085C22.4499 26.0141 24.5595 24.8447 26.868 24.348C27.192 18.264 27.12 15.996 27.12 15.996H28.128L28.056 24.168C28.3224 24.0792 28.6036 24.0424 28.884 24.06V12H29.928V23.988H29.892V23.988ZM30 28.344C30.108 34.032 30.504 41.088 32.376 45.876C32.5987 46.4058 32.8511 46.9226 33.132 47.424C31.923 47.7614 30.6784 47.9547 29.424 48C28.1675 47.9781 26.9199 47.7843 25.716 47.424C26.004 46.776 26.292 46.236 26.544 45.696C28.344 40.944 28.812 33.996 28.848 28.344H30V28.344Z" fill="#0E3263"/>
</svg>
