<svg width="60" height="60" viewBox="0 0 60 60" fill="none" xmlns="http://www.w3.org/2000/svg">
<rect width="60" height="60" rx="30" fill="white"/>
<path d="M19.857 48H14.7V25.797C14.7212 22.1443 16.1816 18.6474 18.7645 16.0645C21.3474 13.4817 24.8443 12.0213 28.4969 12H45.5429V25.68C45.5405 29.34 44.0849 32.8493 41.4961 35.4365C38.9072 38.0237 35.397 39.477 31.7369 39.477H23.097L25.014 34.32H31.6199C32.7559 34.3248 33.8816 34.1045 34.9319 33.672C35.9823 33.2395 36.9367 32.6032 37.7399 31.8C38.5432 30.9967 39.1795 30.0424 39.6119 28.992C40.0445 27.9416 40.2647 26.816 40.2599 25.68V17.157H28.38C27.244 17.1522 26.1183 17.3725 25.068 17.805C24.0176 18.2375 23.0632 18.8737 22.26 19.677C21.4567 20.4802 20.8204 21.4346 20.3879 22.485C19.9554 23.5354 19.7352 24.661 19.74 25.797V48H19.857V48Z" fill="url(#paint0_radial_2032_2749)"/>
<defs>
<radialGradient id="paint0_radial_2032_2749" cx="0" cy="0" r="1" gradientUnits="userSpaceOnUse" gradientTransform="translate(15.735 46.551) scale(29.862)">
<stop stop-color="#D6005E"/>
<stop offset="1" stop-color="#E3448A"/>
</radialGradient>
</defs>
</svg>
