<svg width="60" height="60" viewBox="0 0 60 60" fill="none" xmlns="http://www.w3.org/2000/svg">
<rect width="60" height="60" rx="30" fill="white"/>
<path d="M33.5869 12.3835V21.7172H29.9687C25.3971 21.7172 21.7147 25.3994 21.7147 29.9708C21.7147 34.5407 25.3971 38.2229 29.9672 38.2229H33.5869V47.5566C41.8394 45.9691 48 38.7319 48 29.9693C48 21.2718 41.8423 14.0346 33.5869 12.3835Z" fill="#003791"/>
<path d="M29.9686 41.1414C23.8095 41.1414 18.7918 36.1262 18.7918 29.9689C18.7918 23.8116 23.808 18.7949 29.9657 18.7949H30.6654V12H29.9672C20.0644 12 12 20.0643 12 29.9675C12 39.9357 20.0644 48 29.9686 48H30.6669V41.1444H29.9686V41.1414Z" fill="#FF4B5F"/>
</svg>
