<svg width="40" height="40" viewBox="0 0 40 40" fill="none" xmlns="http://www.w3.org/2000/svg">
<g clip-path="url(#clip0_2023_9)">
<rect width="40" height="40" rx="20" fill="white"/>
<path fill-rule="evenodd" clip-rule="evenodd" d="M19.9975 0C31.0463 0 40 8.95477 40 20.0002C40 31.0452 31.0463 40 19.9975 40C8.95416 40 0 31.0452 0 20.0002C0 8.95477 8.95416 0 19.9975 0ZM19.9975 1.54522C9.80573 1.54522 1.54647 9.8064 1.54647 20.0002C1.54647 30.1922 9.80573 38.4552 19.9975 38.4552C30.192 38.4552 38.454 30.1922 38.454 20.0002C38.454 9.8064 30.192 1.54522 19.9975 1.54522ZM21.2084 6.4638C21.2084 6.4638 21.6459 7.25561 23.6821 6.89399C25.3661 6.59499 26.298 7.03072 26.298 7.59124C26.298 7.59124 27.4957 7.73307 28.0317 8.07893C28.5673 8.42436 27.9987 9.28431 27.9987 9.28431C27.9177 9.12501 27.8033 9.03344 27.4794 8.96358C27.4794 8.96358 26.1845 8.63136 25.7337 9.47001C24.7482 9.5535 23.8989 10.1387 23.4987 10.9365C23.4764 10.9833 23.1023 11.7206 23.3346 13.208C23.4567 13.99 23.8445 14.6523 24.3968 15.2175C24.6372 15.4658 24.938 15.6243 25.3014 15.583C25.8768 15.5165 26.3554 15.2422 26.7659 14.8367C26.9909 14.6131 27.0616 14.361 26.8889 14.0696C26.8653 14.0309 26.8525 13.9878 26.8366 13.9436C26.3267 12.7177 26.7531 11.6354 27.6186 10.9927C28.2541 10.5238 28.9885 10.4688 29.7345 10.5732C34.6536 11.2623 34.819 16.2078 34.819 17.7339L34.8194 18.3713C34.8254 22.3468 34.8857 25.1375 34.9154 25.6984C34.9651 26.5928 35.2792 26.7798 35.4776 26.9216C35.1643 27.1376 32.6045 26.3372 31.9888 25.5761C31.9477 25.5254 31.8632 25.5033 31.7981 25.4879C30.2731 25.1331 30.271 23.5495 30.2418 23.0674C28.9658 23.0674 28.4713 21.6818 28.3351 21.3202C28.2228 21.0097 28.1388 20.6485 28.105 20.3197C28.105 20.9935 27.1027 21.5719 26.0234 20.499C26.0234 21.6043 24.6993 21.4084 24.0403 20.7533C23.9825 20.9773 23.617 21.5468 23.617 21.5468C24.3733 21.6823 24.7148 21.8479 25.0721 22.1606C25.9094 22.8936 26.0049 24.1152 26.0049 24.7455C26.0049 24.7455 27.1584 25.8674 27.6161 26.2819C27.7515 26.4067 27.9001 26.5166 28.0484 26.6282C29.2315 25.3108 29.627 25.8261 29.6248 25.8283C30.4994 25.4773 30.9853 26.1004 30.7933 26.416C30.5893 26.1865 30.2577 26.2529 30.058 26.4327L30.188 26.4586C31.2191 26.6948 30.9537 27.4993 30.6463 27.6725C30.6463 27.4242 30.5683 27.1491 30.1968 27.1244C30.2148 27.5047 29.9573 27.5707 29.7114 27.581C29.1261 27.6052 28.147 27.6325 27.8474 27.9226C27.6773 28.0878 27.7596 28.5725 27.5758 28.7369C27.4232 28.8737 27.2608 28.8575 27.176 28.8587C27.1477 29.0364 27.2008 29.2378 27.4275 29.4742C26.5765 29.5453 25.9381 28.7987 26.3606 28.4013C26.5375 28.2343 27.1331 27.6725 27.1627 27.4302C27.2013 27.1687 26.9258 26.879 26.7347 26.7095C26.3237 26.3458 25.882 26.0208 25.4479 25.6839C25.3198 25.5842 25.1707 25.4956 25.0241 25.4151C24.9067 25.3499 24.7413 25.3214 24.5901 25.3683C24.2636 25.4696 24.2687 25.462 24.1834 25.4057C23.8625 25.1949 23.2815 24.7204 22.0714 24.5884C22.1532 24.6391 22.2094 24.6923 22.2552 24.7545C22.3208 24.8435 22.3653 24.9517 22.4348 25.0991C22.5132 25.2652 22.5736 25.4373 22.6443 25.6038C23.4259 27.4417 24.2006 29.2485 24.9796 31.0876C25.2388 31.6959 25.0083 32.2287 24.3784 32.5213C23.9178 32.7347 23.395 32.6201 23.0861 32.1784C23.1752 32.4826 23.2172 32.7436 23.0912 32.9971C22.9687 33.2505 22.7698 33.4315 22.508 33.5418C22.2569 33.6526 21.9591 33.6913 21.6845 33.6368C21.4047 33.581 21.2191 33.3975 21.0752 33.127C21.0512 33.7275 20.6544 34.1671 19.9975 34.1671C19.3406 34.1671 18.9434 33.7275 18.9199 33.127C18.7759 33.3975 18.5904 33.581 18.3106 33.6368C18.0359 33.6913 17.7381 33.6526 17.487 33.5418C17.2252 33.4315 17.0264 33.2505 16.9034 32.9971C16.7778 32.7436 16.8198 32.4826 16.909 32.1784C16.6 32.6201 16.0773 32.7347 15.6166 32.5213C14.9863 32.2287 14.7562 31.6959 15.0155 31.0876C15.7945 29.2485 16.5687 27.4417 17.3507 25.6038C17.4214 25.4373 17.4814 25.2652 17.5603 25.0991C17.6297 24.9517 17.6742 24.8435 17.7398 24.7545C17.7857 24.6923 17.8418 24.6391 17.9236 24.5884C16.7136 24.7204 16.1321 25.1949 15.8116 25.4057C15.7263 25.462 15.7315 25.4696 15.405 25.3683C15.2537 25.3214 15.0883 25.3499 14.9709 25.4151C14.8244 25.4956 14.6752 25.5842 14.5471 25.6839C14.1131 26.0208 13.6709 26.3458 13.2604 26.7095C13.0693 26.879 12.7938 27.1687 12.8319 27.4302C12.8619 27.6725 13.4571 28.2343 13.6344 28.4013C14.0565 28.7987 13.4185 29.5453 12.5675 29.4742C12.7942 29.2378 12.8473 29.0364 12.8186 28.8587C12.7342 28.8575 12.5718 28.8737 12.4193 28.7369C12.2354 28.5725 12.3177 28.0878 12.1476 27.9226C11.8481 27.6325 10.8685 27.6052 10.2837 27.581C10.0377 27.5707 9.78019 27.5047 9.79818 27.1244C9.42668 27.1491 9.3487 27.4242 9.3487 27.6725C9.02904 27.4924 8.75481 26.6294 9.93701 26.4331L9.87341 26.3823C9.67228 26.2426 9.38529 26.2094 9.20173 26.416C9.00933 26.1004 9.49567 25.4773 10.3702 25.8283C10.3676 25.8261 10.7636 25.3108 11.9466 26.6282C12.0949 26.5166 12.2436 26.4067 12.379 26.2819C12.8366 25.8674 13.9901 24.7455 13.9901 24.7455C13.9901 24.1152 14.0852 22.8936 14.9229 22.1606C15.2798 21.8479 15.6218 21.6823 16.3776 21.5468C16.3776 21.5468 16.0126 20.9773 15.9547 20.7533C15.2957 21.4084 13.9717 21.6043 13.9717 20.499C12.8923 21.5719 11.8901 20.9935 11.8901 20.3197C11.8558 20.6485 11.7722 21.0097 11.6595 21.3202C11.5237 21.6818 11.0292 23.0674 9.75319 23.0674C9.72405 23.5495 9.72191 25.1331 8.19692 25.4879C8.13179 25.5033 8.04695 25.5254 8.00624 25.5761C7.39007 26.3372 4.83071 27.1376 4.51748 26.9216C4.71587 26.7798 5.02952 26.5928 5.07966 25.6984C5.11094 25.108 5.17607 22.0469 5.17607 17.7339C5.17607 16.2078 5.34147 11.2623 10.2605 10.5732C11.0065 10.4688 11.7405 10.5238 12.3764 10.9927C13.242 11.6354 13.6683 12.7177 13.1584 13.9436C13.1425 13.9878 13.1297 14.0309 13.1061 14.0696C12.9334 14.361 13.0041 14.6131 13.2291 14.8367C13.6396 15.2422 14.1182 15.5165 14.6937 15.583C15.057 15.6243 15.3578 15.4658 15.5982 15.2175C16.1501 14.6523 16.525 13.9883 16.66 13.208C16.9167 11.7266 16.5182 10.9833 16.4963 10.9365C16.0961 10.1387 15.2469 9.5535 14.2613 9.47001C13.8106 8.63136 12.5157 8.96358 12.5157 8.96358C12.1917 9.03344 12.0773 9.12501 11.9963 9.28431C11.9963 9.28431 11.4277 8.42436 11.9633 8.07893C12.4994 7.73307 13.697 7.59124 13.697 7.59124C13.697 7.03072 14.629 6.59499 16.3129 6.89399C18.3491 7.25561 18.7862 6.4638 18.7862 6.4638C18.8719 7.43279 18.1267 7.93241 17.8885 8.06743C18.6606 8.90097 19.74 10.5659 19.9975 12.9286C20.255 10.5659 21.3344 8.90097 22.1065 8.06743C21.8683 7.93241 21.1232 7.43279 21.2084 6.4638Z" fill="#A7A7A7"/>
</g>
<defs>
<clipPath id="clip0_2023_9">
<rect width="40" height="40" rx="20" fill="white"/>
</clipPath>
</defs>
</svg>
