<svg width="40" height="40" viewBox="0 0 40 40" fill="none" xmlns="http://www.w3.org/2000/svg">
<path d="M40 20C40 31.0457 31.0457 40 20 40C8.9543 40 0 31.0457 0 20C0 8.9543 8.9543 0 20 0C31.0457 0 40 8.9543 40 20Z" fill="#FF5B29"/>
<path d="M19.9615 14.29C20.5492 14.2965 21.053 14.3871 21.4868 14.575C21.9206 14.7628 22.2529 15.0153 22.4873 15.3392C22.7287 15.6662 22.8511 16.0289 22.8511 16.4466C22.8581 16.9906 22.6657 17.4343 22.2774 17.784C21.8891 18.1337 21.5078 18.2438 20.5562 18.4737L18.0445 19.157C17.7576 19.2282 17.4743 19.3221 17.1454 19.3934V16.8579C17.1524 16.3106 17.2679 15.8411 17.5023 15.459C17.7367 15.0769 18.069 14.7854 18.4888 14.5911C18.912 14.3936 19.4018 14.29 19.9615 14.29ZM17.1874 23.4476C17.3029 22.9262 17.7226 22.4858 18.2614 22.2818C20.8396 21.5047 24.8171 20.7469 25.8036 19.7755C26.6012 18.9594 27 17.9071 27 16.6215C27 15.8152 26.8391 15.0801 26.5243 14.4098C26.2024 13.7427 25.7232 13.1404 25.0725 12.6094C24.4253 12.0783 23.6837 11.6768 22.8441 11.4048C22.0115 11.136 21.074 11 20.035 11C19.017 11 18.083 11.136 17.2329 11.4112C16.3863 11.6865 15.6272 12.0977 14.9625 12.645C14.3153 13.1923 13.8256 13.8496 13.4933 14.6203C13.1644 15.391 13 16.2782 13 17.2724V23.3407C13.007 24.5518 13.2974 25.6074 13.8711 26.5239C14.4448 27.437 15.2529 28.1462 16.3024 28.661C17.3518 29.1759 18.5972 29.4317 20.0385 29.4447C21.0565 29.4447 21.9765 29.3119 22.7986 29.0561C23.6207 28.7938 24.3553 28.3987 25.0025 27.8677C25.6497 27.3366 25.9156 26.7667 26.2374 26.132C26.7027 24.9598 27.1679 22.923 26.3388 22.1232C25.7931 21.5986 24.6772 21.618 23.9426 21.8382C21.8331 22.4664 23.1345 26.1223 19.93 26.1547C19.3668 26.1547 18.8876 26.0511 18.4678 25.8503C18.055 25.6495 17.7332 25.3646 17.5058 24.9825C17.2714 24.6003 17.1524 24.2118 17.1489 23.6645L17.1874 23.4476Z" fill="white"/>
</svg>
