<svg width="31" height="16" viewBox="0 0 31 16" xmlns="http://www.w3.org/2000/svg"><path fill-rule="evenodd" clip-rule="evenodd" d="M28.9514 15.9849C30.1449 15.9849 31 14.9834 31 13.9029C31 13.0971 30.5429 12.4883 29.5683 12.4883C28.3352 12.4883 27.5 13.5495 27.5 14.61C27.5 15.494 28.156 15.9849 28.9514 15.9849ZM12.75 6.74302C13.0559 6.63371 13.3182 6.54654 13.5588 6.67779C13.799 6.80862 13.799 7.17991 13.6465 7.85727L12.4222 13.559C12.3343 13.952 12.3125 14.2798 12.3125 14.5637C12.3125 15.2851 12.7935 15.962 13.7339 15.962C15.2645 15.962 16.5981 14.8698 17.538 13.5151L17.0352 13.0347C17.0352 13.0347 16.27 13.799 15.5918 13.799C15.3078 13.799 15.1331 13.6464 15.2645 13.1221L16.4667 7.96616C16.6198 7.28907 16.751 6.85192 16.751 6.43759C16.751 6.04394 16.6198 5.03906 15.3517 5.03906C14.3677 5.03906 13.4276 5.49794 12.6626 6.61193L12.75 6.74302ZM15.8973 3.42985C16.8813 3.42985 17.6248 2.70925 17.7116 1.79128C17.7997 0.851691 17.0999 0 16.1814 0C15.2414 0 14.4544 0.720597 14.3667 1.66024C14.2794 2.64318 14.9791 3.42985 15.8973 3.42985ZM26.1958 13.4499C25.8893 14.0396 24.4027 15.9619 21.8446 15.9619C19.396 15.9619 18.1719 14.2142 18.1719 11.942C18.1719 9.99827 19.1119 7.85721 20.5766 6.59041C21.9756 5.36622 23.2443 5.03906 24.5337 5.03906C26.4796 5.03906 27.267 6.10938 27.267 7.17991C27.267 8.03176 26.6762 9.08035 25.4956 9.08035C24.8404 9.08035 24.3151 8.73084 24.0749 8.03176C24.3809 7.76983 24.4903 7.35467 24.4903 6.98301C24.4903 6.65585 24.2278 6.24027 23.7035 6.24027C22.3256 6.24027 20.9264 7.94459 20.9264 10.8284C20.9264 12.3792 21.7354 13.7118 23.3095 13.7118C24.1184 13.7118 24.9707 13.559 25.7801 12.9253L26.1958 13.4499ZM11.1281 13.0347C11.1281 13.0347 10.4287 13.8433 9.68553 13.8433C9.37944 13.8433 9.22613 13.5806 9.33574 13.1L10.9532 5.62883C10.7568 5.47601 9.35728 5.03906 7.65202 5.03906C5.72806 5.03906 3.87007 5.60684 2.23026 7.46383C0.524948 9.40835 0 11.5927 0 12.8813C0 14.498 0.699634 15.962 2.36119 15.962C4.02296 15.962 5.96887 14.498 7.28022 11.1997L7.34614 11.2214C7.34614 11.2214 6.38416 13.4936 6.38416 14.6072C6.38416 15.2632 6.55869 15.962 7.63048 15.962C9.0734 15.962 10.6913 14.8698 11.6312 13.5151L11.1281 13.0347ZM7.49705 8.35734C7.19101 9.7554 7.01606 10.3232 6.51333 11.3283C6.01038 12.3117 5.15802 13.5129 4.08664 13.5129C3.08075 13.5129 2.79688 12.7925 2.79688 11.7872C2.79688 9.51525 4.83039 6.12891 6.86333 6.12891C7.38828 6.12891 7.71606 6.23801 7.91275 6.47821L7.49705 8.35734Z"/></svg>