<svg width="22" height="22" viewBox="0 0 22 22" xmlns="http://www.w3.org/2000/svg"><path fill-rule="evenodd" clip-rule="evenodd" d="M10.9986 0C17.0755 0 22 4.92512 22 11.0001C22 17.0749 17.0755 22 10.9986 22C4.92479 22 0 17.0749 0 11.0001C0 4.92512 4.92479 0 10.9986 0ZM10.9986 0.84987C5.39315 0.84987 0.850557 5.39352 0.850557 11.0001C0.850557 16.6057 5.39315 21.1504 10.9986 21.1504C16.6056 21.1504 21.1497 16.6057 21.1497 11.0001C21.1497 5.39352 16.6056 0.84987 10.9986 0.84987ZM11.6646 3.55509C11.6646 3.55509 11.9053 3.99058 13.0252 3.7917C13.9513 3.62724 14.4639 3.86689 14.4639 4.17518C14.4639 4.17518 15.1226 4.25319 15.4174 4.44341C15.712 4.6334 15.3993 5.10637 15.3993 5.10637C15.3547 5.01876 15.2918 4.96839 15.1137 4.92997C15.1137 4.92997 14.4015 4.74725 14.1535 5.20851C13.6115 5.25442 13.1444 5.5763 12.9243 6.01507C12.912 6.04084 12.7063 6.44634 12.834 7.26438C12.9012 7.69449 13.1145 8.05876 13.4182 8.36963C13.5505 8.5062 13.7159 8.59335 13.9157 8.57063C14.2323 8.53408 14.4955 8.38322 14.7213 8.1602C14.845 8.03721 14.8839 7.89853 14.7889 7.73829C14.7759 7.71698 14.7689 7.69332 14.7601 7.66895C14.4797 6.99475 14.7142 6.39949 15.1902 6.04599C15.5397 5.78807 15.9437 5.75785 16.354 5.81524C19.0595 6.19428 19.1504 8.91429 19.1504 9.75364L19.1507 10.1042C19.154 12.2907 19.1871 13.8256 19.2035 14.1341C19.2308 14.626 19.4035 14.7289 19.5127 14.8069C19.3404 14.9257 17.9325 14.4855 17.5938 14.0669C17.5712 14.039 17.5248 14.0268 17.489 14.0184C16.6502 13.8232 16.649 12.9522 16.633 12.6871C15.9312 12.6871 15.6592 11.925 15.5843 11.7261C15.5225 11.5553 15.4763 11.3567 15.4577 11.1758C15.4577 11.5464 14.9065 11.8646 14.3128 11.2745C14.3128 11.8824 13.5846 11.7746 13.2222 11.4143C13.1904 11.5375 12.9893 11.8507 12.9893 11.8507C13.4053 11.9252 13.5931 12.0164 13.7897 12.1883C14.2502 12.5915 14.3027 13.2633 14.3027 13.6101C14.3027 13.6101 14.9371 14.2271 15.1888 14.455C15.2633 14.5237 15.3451 14.5841 15.4266 14.6455C16.0773 13.9209 16.2948 14.2044 16.2936 14.2055C16.7746 14.0125 17.0419 14.3552 16.9363 14.5288C16.8241 14.4026 16.6417 14.4391 16.5319 14.538L16.6034 14.5522C17.1705 14.6821 17.0245 15.1246 16.8555 15.2199C16.8555 15.0833 16.8126 14.932 16.6083 14.9184C16.6182 15.1276 16.4765 15.1639 16.3413 15.1695C16.0193 15.1829 15.4808 15.1979 15.3161 15.3574C15.2225 15.4483 15.2678 15.7149 15.1667 15.8053C15.0828 15.8805 14.9935 15.8716 14.9468 15.8723C14.9312 15.97 14.9605 16.0808 15.0851 16.2108C14.6171 16.2499 14.266 15.8393 14.4983 15.6207C14.5957 15.5289 14.9232 15.2199 14.9395 15.0866C14.9607 14.9428 14.8092 14.7835 14.7041 14.6902C14.4781 14.4902 14.2351 14.3114 13.9963 14.1261C13.9259 14.0713 13.8439 14.0226 13.7633 13.9783C13.6987 13.9425 13.6077 13.9268 13.5245 13.9525C13.345 14.0083 13.3478 14.0041 13.3009 13.9732C13.1244 13.8572 12.8048 13.5962 12.1393 13.5236C12.1843 13.5515 12.2152 13.5808 12.2404 13.615C12.2764 13.6639 12.3009 13.7234 12.3391 13.8045C12.3822 13.8959 12.4155 13.9905 12.4544 14.0821C12.8842 15.0929 13.3103 16.0867 13.7388 17.0982C13.8813 17.4327 13.7545 17.7258 13.4081 17.8867C13.1548 18.0041 12.8673 17.9411 12.6973 17.6981C12.7464 17.8654 12.7695 18.009 12.7002 18.1484C12.6328 18.2878 12.5234 18.3873 12.3794 18.448C12.2413 18.5089 12.0775 18.5302 11.9265 18.5003C11.7726 18.4696 11.6705 18.3686 11.5913 18.2198C11.5781 18.5502 11.3599 18.7919 10.9986 18.7919C10.6374 18.7919 10.4189 18.5502 10.4059 18.2198C10.3267 18.3686 10.2247 18.4696 10.0708 18.5003C9.91974 18.5302 9.75595 18.5089 9.61785 18.448C9.47385 18.3873 9.3645 18.2878 9.29687 18.1484C9.22782 18.009 9.25091 17.8654 9.29993 17.6981C9.13001 17.9411 8.8425 18.0041 8.58915 17.8867C8.24248 17.7258 8.11593 17.4327 8.25851 17.0982C8.68696 16.0867 9.11281 15.0929 9.5429 14.0821C9.58179 13.9905 9.61478 13.8959 9.65815 13.8045C9.69633 13.7234 9.72084 13.6639 9.75689 13.615C9.78211 13.5808 9.81298 13.5515 9.858 13.5236C9.19247 13.5962 8.87266 13.8572 8.69638 13.9732C8.64948 14.0041 8.65231 14.0083 8.47273 13.9525C8.38954 13.9268 8.29857 13.9425 8.234 13.9783C8.1534 14.0226 8.07139 14.0713 8.00092 14.1261C7.76219 14.3114 7.51898 14.4902 7.29321 14.6902C7.1881 14.7835 7.03656 14.9428 7.05754 15.0866C7.07404 15.2199 7.40138 15.5289 7.49895 15.6207C7.73108 15.8393 7.38017 16.2499 6.91213 16.2108C7.0368 16.0808 7.06602 15.97 7.05023 15.8723C7.00381 15.8716 6.91449 15.8805 6.83059 15.8053C6.72949 15.7149 6.77474 15.4483 6.68118 15.3574C6.51644 15.1979 5.9777 15.1829 5.65601 15.1695C5.52074 15.1639 5.3791 15.1276 5.389 14.9184C5.18468 14.932 5.14178 15.0833 5.14178 15.2199C4.96598 15.1208 4.81515 14.6462 5.46536 14.5382L5.43038 14.5103C5.31976 14.4334 5.16191 14.4152 5.06095 14.5288C4.95513 14.3552 5.22262 14.0125 5.70362 14.2055C5.70221 14.2044 5.91996 13.9209 6.57065 14.6455C6.65219 14.5841 6.73396 14.5237 6.80844 14.455C7.06013 14.2271 7.69455 13.6101 7.69455 13.6101C7.69455 13.2633 7.74687 12.5915 8.2076 12.1883C8.40392 12.0164 8.59198 11.9252 9.0077 11.8507C9.0077 11.8507 8.80691 11.5375 8.77509 11.4143C8.41264 11.7746 7.68442 11.8824 7.68442 11.2745C7.09077 11.8646 6.53954 11.5464 6.53954 11.1758C6.52068 11.3567 6.47473 11.5553 6.41275 11.7261C6.33804 11.925 6.06608 12.6871 5.36426 12.6871C5.34823 12.9522 5.34705 13.8232 4.50831 14.0184C4.47248 14.0268 4.42582 14.039 4.40343 14.0669C4.06454 14.4855 2.65689 14.9257 2.48461 14.8069C2.59373 14.7289 2.76624 14.626 2.79381 14.1341C2.81102 13.8094 2.84684 12.1258 2.84684 9.75364C2.84684 8.91429 2.93781 6.19428 5.64329 5.81524C6.05359 5.75785 6.45729 5.78807 6.80702 6.04599C7.28307 6.39949 7.51756 6.99475 7.23712 7.66895C7.2284 7.69332 7.22133 7.71698 7.20837 7.73829C7.11339 7.89853 7.15228 8.03721 7.276 8.1602C7.50177 8.38322 7.76502 8.53408 8.08152 8.57063C8.28137 8.59335 8.44681 8.5062 8.57902 8.36963C8.88256 8.05876 9.08877 7.69355 9.16301 7.26438C9.30417 6.44962 9.085 6.04084 9.07298 6.01507C8.85287 5.5763 8.38577 5.25442 7.84373 5.20851C7.59581 4.74725 6.88361 4.92997 6.88361 4.92997C6.70545 4.96839 6.64253 5.01876 6.59798 5.10637C6.59798 5.10637 6.28525 4.6334 6.57984 4.44341C6.87466 4.25319 7.53335 4.17518 7.53335 4.17518C7.53335 3.86689 8.04593 3.62724 8.97211 3.7917C10.092 3.99058 10.3324 3.55509 10.3324 3.55509C10.3795 4.08804 9.9697 4.36282 9.83867 4.43709C10.2633 4.89553 10.857 5.81126 10.9986 7.11071C11.1403 5.81126 11.7339 4.89553 12.1586 4.43709C12.0276 4.36282 11.6177 4.08804 11.6646 3.55509Z"/></svg>