<?xml version="1.0" encoding="utf-8"?><svg viewBox="0 0 31 24" xmlns="http://www.w3.org/2000/svg" xmlns:xlink="http://www.w3.org/1999/xlink"><style>:root>svg{display:none}:root>svg:target{display:block}</style><svg viewBox="0 0 31 16" id="aic-brand" xmlns="http://www.w3.org/2000/svg"><path fill-rule="evenodd" clip-rule="evenodd" d="M28.951 15.985c1.194 0 2.049-1.002 2.049-2.082 0-.806-.457-1.415-1.432-1.415-1.233 0-2.068 1.062-2.068 2.122 0 .884.656 1.375 1.451 1.375zM12.75 6.743c.306-.11.568-.196.809-.065.24.13.24.502.088 1.18l-1.225 5.701c-.088.393-.11.72-.11 1.005 0 .721.482 1.398 1.422 1.398 1.53 0 2.864-1.092 3.804-2.447l-.503-.48s-.765.764-1.443.764c-.284 0-.459-.153-.328-.677l1.203-5.156c.153-.677.284-1.114.284-1.528 0-.394-.131-1.399-1.4-1.399-.983 0-1.923.459-2.688 1.573l.087.131zm3.147-3.313c.984 0 1.728-.72 1.815-1.639C17.8.851 17.1 0 16.182 0c-.94 0-1.728.72-1.815 1.66-.088.983.612 1.77 1.53 1.77zm10.299 10.02c-.307.59-1.793 2.512-4.351 2.512-2.449 0-3.673-1.748-3.673-4.02 0-1.944.94-4.085 2.405-5.352 1.399-1.224 2.667-1.55 3.957-1.55 1.946 0 2.733 1.07 2.733 2.14 0 .852-.59 1.9-1.771 1.9-.656 0-1.18-.35-1.421-1.048.306-.262.415-.677.415-1.049a.76.76 0 00-.787-.743c-1.377 0-2.777 1.705-2.777 4.588 0 1.551.81 2.884 2.384 2.884.808 0 1.66-.153 2.47-.787l.416.525zm-15.068-.415s-.7.808-1.442.808c-.307 0-.46-.262-.35-.743l1.617-7.471c-.196-.153-1.596-.59-3.301-.59-1.924 0-3.782.568-5.422 2.425C.525 9.408 0 11.593 0 12.88c0 1.617.7 3.081 2.361 3.081 1.662 0 3.608-1.464 4.92-4.762l.065.021s-.962 2.273-.962 3.386c0 .656.175 1.355 1.246 1.355 1.443 0 3.061-1.092 4.001-2.447l-.503-.48zM7.497 8.357c-.306 1.398-.48 1.966-.984 2.971-.503.984-1.355 2.185-2.426 2.185-1.006 0-1.29-.72-1.29-1.726 0-2.272 2.033-5.658 4.066-5.658.525 0 .853.109 1.05.35l-.416 1.878z"/></svg><svg viewBox="0 0 22 22" id="arrow-type-1" xmlns="http://www.w3.org/2000/svg"><path d="M13.077 11L5.41 3.333l1.757-1.756L16.59 11l-9.423 9.423-1.757-1.756L13.077 11z"/></svg><svg viewBox="0 0 22 22" id="arrow-type-2" xmlns="http://www.w3.org/2000/svg"><path d="M12.538 15.423l-.878-.904 3.183-3.182H4.75v-1.25h10.093L11.66 6.904 12.538 6l4.712 4.712-4.712 4.711z"/></svg><svg viewBox="0 0 22 22" id="arrow-type-3" xmlns="http://www.w3.org/2000/svg"><path d="M12.039 11L8.205 7.167l.878-.879L13.795 11l-4.712 4.711-.878-.878L12.04 11z"/></svg><svg viewBox="0 0 22 22" id="brand-rf-cb-logo" xmlns="http://www.w3.org/2000/svg"><path fill-rule="evenodd" clip-rule="evenodd" d="M10.999 0C17.076 0 22 4.925 22 11s-4.924 11-11.001 11C4.925 22 0 17.075 0 11S4.925 0 10.999 0zm0 .85C5.393.85.85 5.394.85 11c0 5.606 4.542 10.15 10.148 10.15 5.607 0 10.15-4.544 10.15-10.15C21.15 5.394 16.607.85 11 .85zm.666 2.705s.24.436 1.36.237c.926-.165 1.439.075 1.439.383 0 0 .659.078.953.268.295.19-.018.663-.018.663-.044-.087-.107-.138-.285-.176 0 0-.713-.183-.96.279a1.52 1.52 0 00-1.23.806c-.012.026-.218.431-.09 1.25.067.43.28.794.584 1.105.133.136.298.223.498.2.316-.036.58-.187.805-.41.124-.123.163-.261.068-.422-.013-.021-.02-.045-.029-.07-.28-.673-.046-1.269.43-1.622.35-.258.754-.288 1.164-.23 2.706.378 2.796 3.098 2.796 3.938v.35c.004 2.187.037 3.722.053 4.03.028.492.2.595.31.673-.173.119-1.58-.322-1.92-.74-.022-.028-.068-.04-.104-.049-.839-.195-.84-1.066-.856-1.33-.702 0-.974-.763-1.049-.962a2.404 2.404 0 01-.126-.55c0 .37-.552.689-1.145.098 0 .608-.728.5-1.09.14-.033.123-.234.437-.234.437.416.074.604.165.8.337.461.403.514 1.075.514 1.422 0 0 .634.617.886.845.074.069.156.13.238.19.65-.724.868-.44.867-.44.48-.193.748.15.642.324-.112-.126-.294-.09-.404.009l.071.014c.567.13.421.573.252.668 0-.137-.042-.288-.247-.302.01.21-.131.246-.267.252-.322.013-.86.028-1.025.187-.094.091-.048.358-.15.448-.083.075-.173.067-.22.067-.015.098.014.209.14.339-.469.039-.82-.372-.588-.59.098-.092.425-.401.442-.534.02-.144-.13-.303-.236-.397-.226-.2-.469-.379-.708-.564a1.774 1.774 0 00-.233-.148.316.316 0 00-.239-.025c-.179.055-.176.051-.223.02-.177-.116-.496-.377-1.162-.45a.347.347 0 01.101.092c.036.049.06.108.1.19.042.09.075.186.114.277.43 1.01.856 2.005 1.285 3.016.142.335.015.628-.33.789a.557.557 0 01-.712-.189c.05.167.073.311.003.45a.605.605 0 01-.32.3.773.773 0 01-.454.052c-.153-.03-.255-.131-.335-.28-.013.33-.231.572-.592.572-.362 0-.58-.242-.593-.572-.08.149-.181.25-.335.28a.773.773 0 01-.453-.052.607.607 0 01-.321-.3c-.07-.139-.046-.283.003-.45a.557.557 0 01-.71.189c-.348-.161-.474-.454-.331-.789.428-1.011.854-2.005 1.284-3.016.039-.091.072-.186.115-.277.038-.082.063-.141.099-.19a.347.347 0 01.101-.091c-.666.072-.985.333-1.162.45-.047.03-.044.034-.223-.021a.316.316 0 00-.239.025 1.78 1.78 0 00-.233.148c-.239.185-.482.364-.708.564-.105.094-.256.253-.235.397.016.133.343.442.44.534.233.218-.118.629-.586.59.125-.13.154-.241.138-.339-.046 0-.136.008-.22-.067-.1-.09-.055-.357-.149-.448-.165-.16-.703-.174-1.025-.188-.135-.005-.277-.041-.267-.25-.204.013-.247.164-.247.3-.176-.098-.327-.573.323-.68l-.035-.029c-.11-.077-.268-.095-.369.019-.106-.174.162-.517.643-.323-.002-.002.216-.285.867.44.081-.062.163-.122.237-.191.252-.228.887-.845.887-.845 0-.347.052-1.018.513-1.422.196-.172.384-.263.8-.337 0 0-.201-.314-.233-.437-.362.36-1.09.468-1.09-.14-.594.59-1.145.272-1.145-.098-.02.18-.065.38-.127.55-.075.199-.347.961-1.049.961-.016.265-.017 1.136-.856 1.331-.036.009-.082.021-.105.049-.338.418-1.746.859-1.918.74.109-.078.281-.181.309-.673.017-.325.053-2.008.053-4.38 0-.84.09-3.56 2.796-3.939.41-.057.814-.027 1.164.231.476.353.71.949.43 1.623-.009.024-.016.048-.029.07-.095.16-.056.298.068.421.226.223.489.374.806.41.2.023.365-.064.497-.2.304-.311.51-.676.584-1.106.141-.814-.078-1.223-.09-1.249a1.52 1.52 0 00-1.23-.806c-.247-.462-.96-.279-.96-.279-.178.038-.24.089-.285.176 0 0-.313-.473-.018-.663.295-.19.953-.268.953-.268 0-.308.513-.548 1.44-.383 1.119.199 1.36-.237 1.36-.237.046.533-.363.808-.494.882.424.459 1.018 1.374 1.16 2.674.141-1.3.735-2.215 1.16-2.674-.131-.074-.541-.349-.494-.882z"/></svg><svg viewBox="0 0 24 24" id="close" xmlns="http://www.w3.org/2000/svg"><path d="M2.83 23.667L.538 21.333 9.708 12 .538 2.667 2.83.333 12 9.667 21.17.333l2.292 2.334L14.292 12l9.17 9.333-2.293 2.334L12 14.333l-9.17 9.334z"/></svg><svg viewBox="0 0 22 22" id="whats-app-brand" xmlns="http://www.w3.org/2000/svg"><path d="M10.884 2.667h.524c.013 0 .038.012.05.012.287.012.575.037.862.074.462.062.924.174 1.374.323 1.673.545 3.034 1.524 4.07 2.936a7.913 7.913 0 011.562 4.461 7.643 7.643 0 01-.1 1.599 8.75 8.75 0 01-.462 1.698c-.65 1.598-1.699 2.887-3.147 3.829a8.03 8.03 0 01-3.959 1.3 8.565 8.565 0 01-2.198-.149 7.854 7.854 0 01-2.223-.817c-.037-.025-.062-.025-.1-.012-.562.173-1.124.36-1.686.533-.911.285-1.823.582-2.722.867-.012 0-.037.012-.062.012.012-.024.012-.05.025-.074.462-1.388.936-2.8 1.423-4.2a.12.12 0 00-.012-.112 8.766 8.766 0 01-.587-1.19 7.973 7.973 0 01-.55-2.528 12.154 12.154 0 010-.954 7.825 7.825 0 01.974-3.37c.937-1.673 2.298-2.888 4.084-3.631a7.733 7.733 0 011.76-.496 7.161 7.161 0 011.037-.099c.025 0 .038-.012.063-.012zm-6.107 14.61c.038-.013.05-.013.075-.025.824-.26 1.66-.52 2.485-.793.05-.013.075-.013.113.012 1.148.731 2.397 1.103 3.77 1.078.25 0 .5-.025.75-.05.412-.05.812-.123 1.2-.247 1.548-.496 2.784-1.413 3.683-2.764a6.568 6.568 0 001.111-3.457c.013-.335 0-.681-.037-1.016a7.19 7.19 0 00-.262-1.252A6.855 6.855 0 009.947 4.13c-.6.111-1.174.285-1.723.545a6.754 6.754 0 00-3.76 7.46A6.54 6.54 0 005.59 14.71c.025.037.037.075.012.112-.274.793-.537 1.586-.811 2.379 0 .025-.013.037-.013.074z"/><path d="M6.833 8.87c0-.437.125-.9.4-1.311.124-.193.286-.373.461-.527a.742.742 0 01.599-.193c.137.013.274.026.412.026.1 0 .174.051.237.128.05.064.087.154.124.232.075.205.15.398.225.604.125.36.262.72.387 1.08a.406.406 0 01-.025.36c-.075.141-.15.27-.262.385-.113.116-.212.232-.325.36a.178.178 0 00-.037.052.265.265 0 00-.05.282c.025.052.037.09.062.129a6.449 6.449 0 001.036 1.427c.436.437.935.797 1.484 1.067l.225.116a.6.6 0 00.137.051c.075.026.15 0 .2-.039a.296.296 0 00.087-.09c.237-.257.474-.527.686-.81a.282.282 0 01.212-.14c.05 0 .1.012.15.025.075.026.15.051.212.09.424.231.836.45 1.26.681.075.039.137.077.212.116.037.026.087.051.125.077.062.039.1.103.1.193 0 .141-.013.283-.038.424-.025.142-.075.283-.125.424a.997.997 0 01-.212.347 2.07 2.07 0 01-.449.36 2.55 2.55 0 01-.66.296.613.613 0 01-.163.026c-.063.013-.125.013-.187.025a1.318 1.318 0 01-.55-.012 5.963 5.963 0 01-.81-.258 12.974 12.974 0 01-1.148-.5 6.658 6.658 0 01-1.434-1.016 9.623 9.623 0 01-1.635-2.006c-.124-.206-.262-.411-.386-.63a4.112 4.112 0 01-.474-1.195c-.025-.167-.063-.386-.063-.656z"/></svg></svg>