<svg width="22" height="22" viewBox="0 0 22 22" xmlns="http://www.w3.org/2000/svg"><path d="M10.8838 2.66669C11.0586 2.66669 11.2334 2.66669 11.4083 2.66669C11.4208 2.66669 11.4457 2.67908 11.4582 2.67908C11.7454 2.69147 12.0327 2.71625 12.3199 2.75343C12.782 2.81539 13.244 2.92691 13.6936 3.07561C15.367 3.62084 16.7282 4.59977 17.7647 6.01241C18.7388 7.33831 19.2633 8.83769 19.3257 10.4734C19.3507 11.0062 19.3132 11.5391 19.2258 12.0719C19.1259 12.6543 18.976 13.2243 18.7637 13.7695C18.1144 15.3681 17.0654 16.6568 15.6167 17.5985C14.4179 18.3792 13.0942 18.8129 11.658 18.8997C11.2459 18.9244 10.8338 18.9244 10.4217 18.8873C10.097 18.8625 9.78482 18.8129 9.46013 18.751C8.67338 18.5899 7.93659 18.3172 7.23726 17.9331C7.19979 17.9083 7.17482 17.9083 7.13735 17.9207C6.57539 18.0942 6.01343 18.2801 5.45146 18.4536C4.53983 18.7386 3.62821 19.036 2.72907 19.321C2.71658 19.321 2.6916 19.3334 2.66663 19.3334C2.67911 19.3086 2.67911 19.2838 2.6916 19.259C3.15366 17.8711 3.62821 16.4585 4.11524 15.0583C4.12773 15.0211 4.12773 14.9839 4.10275 14.9467C3.87797 14.5626 3.67816 14.1661 3.51581 13.7571C3.19112 12.9393 3.01629 12.1091 2.96634 11.2293C2.95385 10.9071 2.95385 10.5973 2.96634 10.2751C2.99132 9.92815 3.02878 9.59358 3.09122 9.25901C3.25356 8.42877 3.5283 7.63571 3.94041 6.90461C4.87701 5.23174 6.23821 4.01737 8.024 3.27387C8.58597 3.03843 9.17291 2.87734 9.78482 2.77821C10.122 2.71625 10.4717 2.69147 10.8213 2.67908C10.8463 2.67908 10.8588 2.66669 10.8838 2.66669ZM4.77711 17.2764C4.81457 17.264 4.82706 17.264 4.85204 17.2516C5.67625 16.9913 6.51295 16.7311 7.33716 16.4585C7.38711 16.4461 7.41209 16.4461 7.44955 16.4709C8.59845 17.202 9.84726 17.5738 11.2209 17.549C11.4707 17.549 11.7205 17.5242 11.9702 17.4994C12.3823 17.4498 12.782 17.3755 13.1691 17.2516C14.7176 16.7559 15.9539 15.8389 16.8531 14.4882C17.5524 13.4474 17.9145 12.2825 17.9645 11.031C17.977 10.6964 17.9645 10.3495 17.927 10.0149C17.8771 9.59358 17.7897 9.17226 17.6648 8.76334C16.8156 6.11155 14.3555 4.14128 11.3833 4.02976C10.9087 4.01737 10.4217 4.04215 9.94716 4.12889C9.34774 4.24042 8.77329 4.4139 8.22381 4.67412C6.0384 5.70262 4.47739 7.85876 4.34003 10.4238C4.30256 10.9938 4.35251 11.5638 4.46491 12.1339C4.65223 13.0756 5.02687 13.9306 5.58883 14.7113C5.61381 14.7485 5.6263 14.7856 5.60132 14.8228C5.32658 15.6159 5.06433 16.4089 4.7896 17.202C4.7896 17.2268 4.77711 17.2392 4.77711 17.2764Z"/><path d="M6.83325 8.87002C6.83325 8.43294 6.958 7.97015 7.23245 7.55878C7.3572 7.36595 7.51938 7.18598 7.69403 7.03171C7.86868 6.87745 8.06828 6.81317 8.29283 6.83888C8.43006 6.85174 8.56728 6.86459 8.70451 6.86459C8.80431 6.86459 8.87916 6.91602 8.94154 6.99315C8.99144 7.05742 9.02886 7.14741 9.06629 7.22454C9.14114 7.43023 9.21599 7.62306 9.29084 7.82874C9.41559 8.18869 9.55281 8.54864 9.67756 8.90859C9.72746 9.03714 9.71499 9.15284 9.65261 9.26854C9.57776 9.40995 9.50291 9.5385 9.39064 9.6542C9.27836 9.7699 9.17856 9.8856 9.06629 10.0141C9.05381 10.027 9.04134 10.0399 9.02886 10.0656C8.95401 10.1556 8.94154 10.2455 8.97896 10.3484C9.00391 10.3998 9.01639 10.4384 9.04134 10.4769C9.32826 11.004 9.66509 11.4797 10.0768 11.9039C10.5134 12.341 11.0124 12.7009 11.5613 12.9709C11.6361 13.0094 11.711 13.048 11.7858 13.0866C11.8357 13.1123 11.8732 13.1251 11.9231 13.138C11.9979 13.1637 12.0728 13.138 12.1227 13.0994C12.1601 13.0737 12.185 13.048 12.21 13.0094C12.447 12.7523 12.684 12.4824 12.8961 12.1996C12.946 12.1224 13.0084 12.071 13.1082 12.0581C13.1581 12.0581 13.208 12.071 13.2579 12.0839C13.3328 12.1096 13.4076 12.1353 13.47 12.1738C13.8941 12.4052 14.3058 12.6238 14.73 12.8552C14.8048 12.8937 14.8672 12.9323 14.942 12.9709C14.9795 12.9966 15.0294 13.0223 15.0668 13.048C15.1292 13.0866 15.1666 13.1508 15.1666 13.2408C15.1666 13.3822 15.1541 13.5237 15.1292 13.6651C15.1042 13.8065 15.0543 13.9479 15.0044 14.0893C14.9545 14.2178 14.8921 14.3335 14.7923 14.4364C14.6676 14.5778 14.5054 14.6935 14.3432 14.7963C14.1312 14.9249 13.9191 15.0277 13.6821 15.092C13.6322 15.1049 13.5823 15.1177 13.5199 15.1177C13.4575 15.1306 13.3951 15.1306 13.3328 15.1434C13.1456 15.182 12.971 15.1691 12.7839 15.1306C12.5094 15.0663 12.2349 14.9763 11.973 14.8735C11.5862 14.7192 11.1995 14.5649 10.8253 14.3721C10.3013 14.1021 9.82726 13.755 9.39064 13.3565C8.75441 12.7652 8.21798 12.0967 7.75641 11.3511C7.63166 11.1454 7.49443 10.9397 7.36968 10.7212C7.1576 10.3484 6.98295 9.94987 6.89563 9.52565C6.87068 9.35853 6.83325 9.13999 6.83325 8.87002Z"/></svg>